#!OML:ASF I:\Actors\actors\Patient Classification 2\Patient 1\Session 1\actor1.ASF
:FULLY-SPECIFIED
:DEGREES
413
root -0.428057 18.7362 5.26173 17.3306 7.44592 -1.28088
lowerback 27.564 0.56831 4.01262
upperback -0.217428 1.92981 -0.708261
thorax -14.834 0.538526 -3.71195
lowerneck -13.5966 3.74104 0.366168
upperneck -8.53853 4.9608 -1.80318
head -0.38962 2.50503 -0.43818
rclavicle 5.87409e-014 -2.66371e-014
rhumerus 1.33777 17.1616 -72.1684
rradius 143.207
rwrist 10.3832
rhand 14.7978 -53.256
rfingers 7.12502
rthumb 39.6613 -78.5834
lclavicle 5.87409e-014 -2.66371e-014
lhumerus -6.91849 -41.7886 90.2185
lradius 134.776
lwrist -9.14245
lhand -14.6667 -29.3373
lfingers 7.12502
lthumb 11.4862 0.328062
rfemur -18.0511 -2.63171 14.7275
rtibia 14.4302
rfoot -20.3333 -12.3073
rtoes -12.161
lfemur -32.5656 -3.11547 -11.7737
ltibia 31.8956
lfoot -16.3919 5.50869
ltoes -57.3813
414
root -0.431867 18.7349 5.24522 17.4494 7.36994 -1.40157
lowerback 27.5909 0.368451 3.60905
upperback -0.222812 1.6133 -0.239651
thorax -14.9032 0.444237 -2.86051
lowerneck -13.2445 2.80758 -1.25653
upperneck -8.69699 3.97832 0.0116854
head -0.572806 2.0646 0.335454
rclavicle -2.28602e-015 -5.96354e-015
rhumerus 1.93331 18.2466 -71.5885
rradius 143.028
rwrist 9.85931
rhand 15.5281 -53.5827
rfingers 7.12502
rthumb 40.3485 -78.7027
lclavicle -2.28602e-015 -5.96354e-015
lhumerus -7.42385 -40.9767 90.5834
lradius 134.636
lwrist -9.33343
lhand -14.5754 -29.1715
lfingers 7.12502
lthumb 11.5743 0.488895
rfemur -18.2197 -2.67557 14.8469
rtibia 14.3276
rfoot -20.0816 -12.1267
rtoes -12.064
lfemur -32.8038 -3.02585 -11.647
ltibia 32.0125
lfoot -16.4216 5.62381
ltoes -57.4314
415
root -0.43383 18.7318 5.22942 17.5786 7.41073 -1.47472
lowerback 27.6186 0.207286 3.50129
upperback -0.191602 1.39991 -0.0395661
thorax -14.902 0.366215 -2.50226
lowerneck -13.0559 1.48573 -2.38647
upperneck -9.02374 2.41972 1.9322
head -0.725539 1.31908 1.07147
rclavicle -1.51076e-014 2.72335e-014
rhumerus 2.24156 18.7504 -71.4408
rradius 142.975
rwrist 9.74197
rhand 16.0249 -53.6631
rfingers 7.12502
rthumb 40.8155 -78.6378
lclavicle -1.51076e-014 2.72335e-014
lhumerus -7.42395 -40.5696 90.3253
lradius 134.523
lwrist -9.26293
lhand -14.3068 -28.8179
lfingers 7.12502
lthumb 11.8332 0.827733
rfemur -18.3599 -2.74141 14.9368
rtibia 14.2076
rfoot -19.9868 -12.0467
rtoes -11.9693
lfemur -33.0724 -3.04306 -11.5288
ltibia 32.1161
lfoot -16.4545 5.63379
ltoes -57.2846
416
root -0.432945 18.7269 5.21432 17.7405 7.49974 -1.51315
lowerback 27.5906 0.0631011 3.55198
upperback -0.170867 1.24566 0.0833864
thorax -14.875 0.300257 -2.3369
lowerneck -12.7974 -0.0806197 -3.40869
upperneck -9.48372 0.522941 3.85472
head -0.872828 0.396014 1.81091
rclavicle -1.03368e-014 1.07344e-014
rhumerus 2.36592 18.9251 -71.454
rradius 143.032
rwrist 9.80669
rhand 16.3943 -53.5632
rfingers 7.12502
rthumb 41.1625 -78.4278
lclavicle -1.03368e-014 1.07344e-014
lhumerus -7.32979 -40.2614 90.0694
lradius 134.432
lwrist -9.19517
lhand -13.8062 -28.2152
lfingers 7.12502
lthumb 12.316 1.40203
rfemur -18.4946 -2.75507 14.9792
rtibia 14.0454
rfoot -19.9974 -12.0737
rtoes -11.9538
lfemur -33.3895 -3.02464 -11.4659
ltibia 32.209
lfoot -16.4162 5.55347
ltoes -57.2486
417
root -0.428888 18.7214 5.20027 17.8734 7.57714 -1.48563
lowerback 27.5736 -0.07986 3.61052
upperback -0.162341 1.10165 0.240619
thorax -14.867 0.23899 -2.14287
lowerneck -12.4325 -1.71419 -4.6558
upperneck -10.0385 -1.43582 5.85135
head -1.00776 -0.557387 2.64502
rclavicle -1.51076e-014 -1.41137e-014
rhumerus 2.48933 18.9497 -71.4627
rradius 143.064
rwrist 9.8405
rhand 16.6743 -53.475
rfingers 7.12502
rthumb 41.4253 -78.2547
lclavicle -1.51076e-014 -1.41137e-014
lhumerus -7.28062 -39.9245 89.9892
lradius 134.363
lwrist -9.17335
lhand -13.2478 -27.4886
lfingers 7.12502
lthumb 12.8544 2.09557
rfemur -18.5686 -2.80809 14.9543
rtibia 13.8616
rfoot -19.979 -12.0878
rtoes -11.9169
lfemur -33.6534 -3.05851 -11.4808
ltibia 32.2854
lfoot -16.3681 5.51034
ltoes -57.309
